# xmcd
#
# Track frame offsets:
#	150
#	16656
#	40934
#	55141
#	71796
#	89490
#	103896
#	119416
#	137218
#	153980
#	171654
#	187252
#
# Disc length: 2697 seconds
#
# Revision: 1
# Processed by: cddbd v1.5.2PL0 Copyright (c) Steve Scherf et al.
# Submitted via: audiograbber 1.83.01
#
DISCID=b10a870c
DTITLE=Michy Reincke - Jetzt ist schön
DYEAR=2009
DGENRE=Pop
TTITLE0=Bleib heute Nacht bei mir
TTITLE1=Jetzt ist schön
TTITLE2=In deinem Garten
TTITLE3=Mathilda
TTITLE4=Die Straße durch dein Herz
TTITLE5=Sie ist so
TTITLE6=Mir gefällt dein Stil
TTITLE7=Zwischen Venus und Mars
TTITLE8=Halleluja
TTITLE9=Dieser Mann ist für dich
TTITLE10=Es ist was dazwischen gekommen
TTITLE11=Lass das mal den Micki machen
EXTD=
EXTT0=
EXTT1=
EXTT2=
EXTT3=
EXTT4=
EXTT5=
EXTT6=
EXTT7=
EXTT8=
EXTT9=
EXTT10=
EXTT11=
PLAYORDER=
